<svg fill="none" height="76" viewBox="0 0 88 76" width="88" xmlns="http://www.w3.org/2000/svg"><path d="m82.6177 45.1894c-.4828-.8895-1.2068-1.3343-2.1723-1.3343l-14.3609.1213 9.1717-11.6449c.3218-.4043.4827-.8896.4827-1.4556v-10.1893c0-.7279-.2414-1.3141-.7241-1.7589s-1.0459-.6672-1.6895-.6672h-8.8097c-.885 0-1.5688.3639-2.0515 1.0917l-11.2233 17.9526 4.9479-23.6537c.2414-.8896 0-1.6578-.7241-2.3048l-11.2232-10.674477c-.4828-.404338-1.0258-.6267238-1.6292-.66715756-.6034-.04043384-1.1465.18195256-1.6292.66715756l-11.706 10.310577c-.7241.647-1.0057 1.4557-.8447 2.4261l3.6204 17.8313-11.344-6.1864c-.4827-.2426-1.0056-.3235-1.5688-.2426s-1.0459.3639-1.4482.8491l-8.68896 9.8254c-.40226.4044-.6034.9098-.6034 1.5163s.20114 1.1524.6034 1.6376l6.99946 8.9763-10.13714-.1213c-.96544 0-1.68952.4447-2.17225 1.3343l-3.499722 6.7929c-.1609066.4852-.2212467.9704-.18102 1.4556.0402268.4852.221247.8895.543061 1.213 3.379041 4.0434 7.763761 7.5207 13.154171 10.4319 8.8499 4.8521 19.0071 7.2781 30.4717 7.2781s21.5817-2.4665 30.3511-7.3994c5.3099-2.9112 9.6142-6.3885 12.9128-10.4319.3218-.4043.5028-.8491.543-1.3343.0403-.4852-.0201-.93-.181-1.3343zm-48.3928 21.1065-11.5853-9.0976c-.2414-.2426-.3821-.5054-.4224-.7885-.0402-.283.0604-.5458.3017-.7884l4.7066-4.7308c.2413-.2426.543-.3437.9051-.3032.362.0404.6235.2223.7844.5458l6.8787 13.9497c.2414.4043.161.7884-.2413 1.1523s-.8448.3842-1.3275.0607zm15.085-17.1035-4.2238 15.6479c-.1609.566-.5028.8289-1.0258.7884-.5229-.0404-.8246-.3032-.9051-.7884l-4.9478-29.7189c-.0805-.5661.1206-.9502.6034-1.1523.4827-.2022.8849-.1011 1.2068.3032l8.6889 11.5236c.7241.9705.9252 2.1026.6034 3.3965z" fill="#fff"/></svg>