<svg fill="none" height="42" viewBox="0 0 116 42" width="116" xmlns="http://www.w3.org/2000/svg"><g fill="#0052d9"><path d="m0 41.8906-.00000037-30.6666c-.00000006-4.41832 3.58172037-8.00004 8.00000037-8.00004h22.6667c4.4182 0 8 3.58172 8 8.00004v22.6666c0 4.4183-3.5818 8-8 8z"/><path d="m37.667 11.2236h1v22.667h-1zm-7-6.99997h-22.667c-3.86588 0-6.99982 3.13416-7 6.99997v29.667h29.667c3.8658-.0002 7-3.1341 7-7h1l-.0108.4121c-.2075 4.0905-3.4875 7.3699-7.5781 7.5772l-.4111.0107h-30.667l-.00000037-30.667.01074217-.4111c.2141652-4.22705 3.7089882-7.58887 7.9892582-7.58887h22.667l.4111.01074c4.0908.20726 7.3709 3.48735 7.5781 7.57813l.0108.4111h-1c-.0002-3.8657-3.1343-6.99979-7-6.99997z"/><path d="m77.3359 11.2236c.0002-4.41799 3.582-7.99979 8-7.99997h22.6671c4.418 0 8 3.58187 8 7.99997v22.667c0 4.4183-3.582 8-8 8h-22.6671c-4.4181-.0002-8-3.5818-8-8zm11.6016 11.3379c.0001 4.2698 3.4625 7.7314 7.7334 7.7315 4.2711 0 7.7331-3.4616 7.7331-7.7315s-3.462-7.7314-7.7331-7.7314c-4.2709.0001-7.7334 3.4616-7.7334 7.7314z"/><path d="m115.003 11.333h1v22.667h-1zm-7-6.99999h-22.6671c-3.7448.00017-6.8035 2.94135-6.9912 6.63969l-.0088.3603v22.667c0 3.745 2.9412 6.8035 6.6397 6.9912l.3603.0088h22.6671c3.866 0 7-3.134 7-7h1c0 4.4183-3.582 8-8 8h-22.6671c-4.4181-.0002-8-3.5818-8-8v-22.667c.0002-4.41801 3.582-7.99982 8-7.99999h22.6671c4.418 0 8 3.58187 8 7.99999h-1c0-3.74504-2.941-6.80365-6.64-6.9912zm-11.3321 10.60649c-4.2709 0-7.7334 3.4615-7.7334 7.7314.0001 4.2698 3.4625 7.7314 7.7334 7.7314l.3984-.0097c4.0857-.2073 7.3347-3.5854 7.3347-7.7217 0-4.2699-3.462-7.7314-7.7331-7.7314zm0-1c4.8231 0 8.7331 3.909 8.7331 8.7314 0 4.6717-3.67 8.486-8.2839 8.7197l-.4492.0117c-4.8229 0-8.7333-3.9091-8.7334-8.7314 0-4.8224 3.9104-8.7314 8.7334-8.7314z"/><path clip-rule="evenodd" d="m49.4087 0c.5697 0 1.1161.220666 1.519.613448.4028.392782.6292.925522.6292 1.480992v2.09445h-4.2963v-2.09445c0-.55547.2263-1.08821.6291-1.480992.4029-.392782.9493-.613448 1.519-.613448zm19.3333 4.18889h2.1482c1.7092 0 3.3483.662 4.5569 1.84034 1.2086 1.17835 1.8875 2.77656 1.8875 4.44297v25.1334c0 1.6664-.6789 3.2646-1.8875 4.4429-1.2086 1.1784-2.8477 1.8404-4.5569 1.8404h-25.7778c-1.7092 0-3.3483-.662-4.5569-1.8404-1.2086-1.1783-1.8875-2.7765-1.8875-4.4429v-25.1334c0-1.66641.6789-3.26462 1.8875-4.44297 1.2086-1.17834 2.8477-1.84034 4.5569-1.84034h2.1482v6.28331c0 .5555.2263 1.0882.6291 1.481.4029.3928.9493.6135 1.519.6135s1.1161-.2207 1.519-.6135c.4028-.3928.6292-.9255.6292-1.481v-6.28331h4.2963v6.28331c0 .5555.2263 1.0882.6291 1.481.4029.3928.9493.6135 1.519.6135s1.1161-.2207 1.519-.6135c.4028-.3928.6292-.9255.6292-1.481v-6.28331h4.2962v6.28331c0 .5555.2264 1.0882.6292 1.481.4029.3928.9493.6135 1.519.6135s1.1161-.2207 1.519-.6135c.4028-.3928.6291-.9255.6291-1.481zm0 0h-4.2963v-2.09445c0-.55547.2264-1.08821.6292-1.480992.4029-.392782.9493-.613448 1.519-.613448s1.1161.220666 1.519.613448c.4028.392782.6291.925522.6291 1.480992zm-8.5925 0v-2.09445c0-.55547-.2264-1.08821-.6292-1.480992-.4029-.392782-.9493-.613448-1.519-.613448s-1.1161.220666-1.519.613448c-.4028.392782-.6291.925522-.6291 1.480992v2.09445z" fill-rule="evenodd"/><path d="m47.2607 10.4717c0 .5554.2261 1.0886.6289 1.4814.4029.3928.9499.6133 1.5196.6133.5695-.0001 1.1158-.2206 1.5185-.6133.4029-.3928.6289-.9259.6289-1.4814v-6.28322h4.2969v6.28322c0 .5555.2261 1.0886.6289 1.4814.4028.3927.949.6132 1.5186.6133.5697 0 1.1167-.2205 1.5195-.6133.4028-.3927.6289-.926.6289-1.4814v-6.28322h4.2959v6.28322c0 .5555.227 1.0886.6299 1.4814.4028.3927.949.6133 1.5186.6133.5697 0 1.1166-.2205 1.5195-.6133.4027-.3927.6289-.926.6289-1.4814v-6.28322h2.1484c1.709.00011 3.3482.66257 4.5567 1.84082 1.2083 1.17823 1.8876 2.77618 1.8877 4.4424v25.1338c-.0001 1.6664-.6792 3.265-1.8877 4.4433-1.2085 1.1782-2.8477 1.8398-4.5567 1.8399h-25.7783c-1.709-.0001-3.3481-.6617-4.5566-1.8399-1.2086-1.1783-1.8877-2.7769-1.8877-4.4433v-25.1338c.0001-1.6663.6792-3.26415 1.8877-4.4424 1.2085-1.17832 2.8475-1.8408 4.5566-1.84082h2.1484zm23.9815 0c0 1.2392-.5054 2.415-1.3838 3.2715-.8763.8543-2.052 1.3232-3.2646 1.3232-1.2125 0-2.3875-.4691-3.2637-1.3232-.4465-.4353-.7968-.9531-1.0332-1.5196-.2364.5663-.585 1.0844-1.0313 1.5196-.8762.8543-2.052 1.3232-3.2646 1.3232-1.2125-.0001-2.3875-.4691-3.2637-1.3232-.4464-.4353-.7968-.953-1.0332-1.5196-.2364.5663-.585 1.0844-1.0312 1.5196-.8762.8542-2.0513 1.3231-3.2637 1.3232-1.2126 0-2.3884-.4689-3.2647-1.3232-.8784-.8565-1.3838-2.0323-1.3838-3.2715v-3.7676c-.9348.08022-1.8061.4778-2.4599 1.11524-.7328.71454-1.1327 1.66985-1.1328 2.65236v25.1338c0 .9826.3998 1.9386 1.1328 2.6533.7351.7166 1.7454 1.1298 2.8115 1.1299h25.7783l.1992-.0049c.9921-.0482 1.9232-.4532 2.6123-1.125.6873-.6701 1.0814-1.5523 1.128-2.4697l.0049-.1836v-25.1338c-.0001-.98244-.4001-1.93783-1.1329-2.65236-.6537-.63737-1.5252-1.03496-2.4599-1.11524zm-21.833-10.4717c.5695.00012116 1.1158.220607 1.5185.613281.4029.392779.6289.925979.6289 1.481449v2.09375h-4.2959v-2.09375c0-.55546.2261-1.08867.6289-1.481449.4029-.392782.9499-.613281 1.5196-.613281zm8.5918 0c.5697 0 1.1167.220499 1.5195.613281.4028.392769.6289.926019.6289 1.481449v2.09375h-4.2959v-2.09375c0-.55548.2261-1.08867.6289-1.481449.4028-.392675.949-.6131968 1.5186-.613281zm8.5928 0c.5697 0 1.1166.220499 1.5195.613281.4027.392759.6289.926059.6289 1.481449v2.09375h-4.2969v-2.09375c0-.55548.227-1.08867.6299-1.481449.4028-.39266.9489-.61324315 1.5186-.613281z"/></g><path d="m3.02273 34v-23.2727h15.68177v4.0568h-10.76132v5.5454h9.95452v4.0569h-9.95452v5.5568h10.80682v4.0568zm22.90827-17.4545 3.2046 6.1022 3.2841-6.1022h4.9659l-5.0568 8.7272 5.1931 8.7273h-4.9431l-3.4432-6.0341-3.3864 6.0341h-5l5.1818-8.7273-5-8.7272zm22.9737 0v3.6363h-10.5114v-3.6363zm-8.125-4.1819h4.8409v16.2728c0 .4469.0682.7954.2045 1.0454.1364.2424.3258.4129.5682.5114.25.0985.5379.1477.8636.1477.2273 0 .4546-.0189.6819-.0568.2272-.0455.4015-.0796.5227-.1023l.7613 3.6023c-.2424.0757-.5833.1629-1.0227.2614-.4394.106-.9735.1704-1.6023.1931-1.1666.0455-2.1894-.1098-3.0681-.4659-.8713-.356-1.5493-.9091-2.0341-1.6591-.4849-.75-.7235-1.6969-.7159-2.8409zm10.6384 21.6364v-17.4545h4.6932v3.0454h.1818c.3182-1.0833.8522-1.9015 1.6022-2.4545.75-.5606 1.6137-.8409 2.591-.8409.2424 0 .5037.0151.784.0454s.5266.072.7387.125v4.2955c-.2273-.0682-.5417-.1288-.9432-.1819-.4015-.053-.7689-.0795-1.1023-.0795-.7121 0-1.3485.1553-1.9091.4659-.553.303-.9924.7273-1.3181 1.2727-.3182.5455-.4773 1.1743-.4773 1.8864v9.875zm16.931.3295c-1.1136 0-2.1061-.1931-2.9773-.5795-.8712-.3939-1.5606-.9735-2.0682-1.7386-.5-.7728-.75-1.7349-.75-2.8864 0-.9697.1781-1.7841.5341-2.4432.3561-.6591.8409-1.1894 1.4546-1.5909.6136-.4015 1.3106-.7045 2.0909-.9091.7879-.2045 1.6136-.3485 2.4773-.4318 1.0151-.1061 1.8333-.2045 2.4545-.2955.6212-.0984 1.072-.2424 1.3523-.4318s.4204-.4697.4204-.8409v-.0682c0-.7197-.2272-1.2765-.6818-1.6704-.447-.394-1.0833-.5909-1.9091-.5909-.8712 0-1.5644.1932-2.0795.5795-.5152.3788-.8561.8561-1.0228 1.4318l-4.4772-.3636c.2272-1.0606.6742-1.9773 1.3409-2.75.6666-.7803 1.5265-1.3788 2.5795-1.7955 1.0606-.4242 2.2879-.6363 3.6818-.6363.9697 0 1.8978.1136 2.7841.3409.894.2273 1.6856.5795 2.375 1.0568.697.4773 1.2462 1.0909 1.6478 1.8409.4015.7424.6022 1.6326.6022 2.6705v11.7727h-4.5909v-2.4205h-.1363c-.2803.5455-.6553 1.0266-1.125 1.4432-.4697.4091-1.0341.7311-1.6932.9659-.6591.2273-1.4205.3409-2.2841.3409zm1.3864-3.3409c.7121 0 1.3409-.1401 1.8863-.4204.5455-.2879.9735-.6743 1.2841-1.1591.3106-.4849.4659-1.0341.4659-1.6477v-1.8523c-.1515.0985-.3598.1894-.625.2727-.2576.0758-.5492.1477-.875.2159-.3257.0606-.6515.1175-.9773.1705-.3257.0454-.6212.0871-.8863.125-.5682.0833-1.0644.2159-1.4887.3977-.4242.1818-.7537.428-.9886.7386-.2348.3031-.3523.6819-.3523 1.1364 0 .6591.2387 1.1629.7159 1.5114.4849.3409 1.0985.5113 1.841.5113z" fill="#fff"/></svg>