<svg width="159" height="159" viewBox="0 0 159 159" fill="none" xmlns="http://www.w3.org/2000/svg">
<path fill-rule="evenodd" clip-rule="evenodd" d="M79.1667 0C35.4441 0 0 35.4441 0 79.1667C0 122.889 35.4441 158.333 79.1667 158.333C122.889 158.333 158.333 122.889 158.333 79.1667C158.333 35.4441 122.889 0 79.1667 0ZM73.0502 52.0049L57.0979 64.7085C50.405 70.038 47.0586 72.7035 47.7118 75.6786L47.7465 75.8258C48.4907 78.7827 52.7326 79.9195 61.2163 82.1932C65.9308 83.4559 68.2884 84.0877 69.3943 85.8745L69.4505 85.9687C70.5177 87.7768 69.9105 90.0418 68.6969 94.5717L68.3794 95.7552C65.014 108.314 63.3317 114.593 66.572 116.621C69.8123 118.649 74.9685 114.543 85.2807 106.332L101.233 93.628C107.926 88.2985 111.272 85.6338 110.619 82.6579L110.585 82.5107C109.84 79.5538 105.598 78.417 97.1145 76.1441C92.4002 74.8806 90.0426 74.2488 88.9366 72.462L88.8804 72.3678C87.8133 70.5597 88.4205 68.2947 89.6341 63.7656L89.9515 62.5812C93.3161 50.0226 94.9992 43.7433 91.7581 41.7154C88.5178 39.6875 83.3617 43.7933 73.0502 52.0049Z" fill="white"/>
</svg>
