<svg width="171" height="82" viewBox="0 0 171 82" fill="none" xmlns="http://www.w3.org/2000/svg">
<path fill-rule="evenodd" clip-rule="evenodd" d="M153.999 36.8359C146.175 36.8359 139.832 43.1786 139.832 51.0026C139.832 58.8266 146.175 65.1693 153.999 65.1693C161.823 65.1693 168.165 58.8266 168.165 51.0026C168.165 43.1786 161.823 36.8359 153.999 36.8359ZM152.904 46.1421L150.05 48.4153C148.852 49.369 148.253 49.846 148.37 50.3784L148.376 50.4048C148.509 50.9339 149.268 51.1373 150.787 51.5442C151.63 51.7702 152.052 51.8832 152.25 52.2029L152.26 52.2198C152.451 52.5434 152.342 52.9487 152.125 53.7593L152.068 53.9711C151.466 56.2185 151.165 57.342 151.745 57.705C152.325 58.0678 153.247 57.3331 155.093 55.8638L157.947 53.5904C159.145 52.6367 159.744 52.1599 159.627 51.6274L159.621 51.601C159.488 51.0719 158.729 50.8684 157.21 50.4617C156.367 50.2356 155.945 50.1226 155.747 49.8028L155.737 49.786C155.546 49.4624 155.655 49.0571 155.872 48.2466L155.929 48.0347C156.531 45.7873 156.832 44.6637 156.252 44.3008C155.672 43.9379 154.749 44.6726 152.904 46.1421Z" fill="#FFCA09"/>
<path d="M43.744 71.756C44.0893 71.2987 44.5373 70.9253 45.088 70.636C45.6387 70.3467 46.236 70.202 46.88 70.202C47.7947 70.202 48.5273 70.4773 49.078 71.028C49.638 71.5787 49.918 72.3253 49.918 73.268C49.918 73.5387 49.89 73.828 49.834 74.136C49.694 74.9107 49.4093 75.6013 48.98 76.208C48.56 76.8147 48.042 77.286 47.426 77.622C46.8193 77.958 46.1753 78.126 45.494 78.126C44.8313 78.126 44.276 77.9813 43.828 77.692C43.38 77.4027 43.0673 77.034 42.89 76.586L42.638 78H41.364L43.198 67.64H44.472L43.744 71.756ZM48.532 74.136C48.5693 73.94 48.588 73.7253 48.588 73.492C48.588 72.8107 48.3873 72.2787 47.986 71.896C47.5847 71.504 47.0667 71.308 46.432 71.308C45.9653 71.308 45.5127 71.4247 45.074 71.658C44.6353 71.882 44.2573 72.2133 43.94 72.652C43.632 73.0813 43.4267 73.5807 43.324 74.15C43.2867 74.346 43.268 74.5607 43.268 74.794C43.268 75.4753 43.4687 76.0167 43.87 76.418C44.2807 76.81 44.7987 77.006 45.424 77.006C45.9 77.006 46.3527 76.894 46.782 76.67C47.2207 76.4367 47.594 76.1053 47.902 75.676C48.2193 75.2373 48.4293 74.724 48.532 74.136ZM52.6869 70.328L53.9889 76.516L57.4749 70.328H58.7909L52.1829 81.612H50.8529L53.0229 77.916L51.2729 70.328H52.6869ZM67.5735 70.202C68.2175 70.202 68.7729 70.328 69.2395 70.58C69.7155 70.8227 70.0749 71.168 70.3175 71.616C70.5695 72.0547 70.6955 72.5587 70.6955 73.128C70.6955 73.324 70.6722 73.562 70.6255 73.842C70.5882 74.0847 70.5275 74.3367 70.4435 74.598H64.3115C64.2929 74.7847 64.2835 74.92 64.2835 75.004C64.2835 75.648 64.4749 76.152 64.8575 76.516C65.2495 76.8707 65.7582 77.048 66.3835 77.048C66.9342 77.048 67.4149 76.922 67.8255 76.67C68.2455 76.4087 68.5629 76.0633 68.7775 75.634H70.1495C69.8135 76.3713 69.2955 76.9733 68.5955 77.44C67.9049 77.8973 67.1022 78.126 66.1875 78.126C65.2262 78.126 64.4515 77.8507 63.8635 77.3C63.2849 76.74 62.9955 75.9793 62.9955 75.018C62.9955 74.7473 63.0235 74.458 63.0795 74.15C63.2195 73.3567 63.5042 72.6613 63.9335 72.064C64.3629 71.4667 64.8902 71.0093 65.5155 70.692C66.1502 70.3653 66.8362 70.202 67.5735 70.202ZM69.3375 73.674C69.3655 73.4873 69.3795 73.3147 69.3795 73.156C69.3795 72.5587 69.1882 72.0967 68.8055 71.77C68.4322 71.4433 67.9422 71.28 67.3355 71.28C66.6822 71.28 66.0895 71.4947 65.5575 71.924C65.0255 72.344 64.6662 72.9273 64.4795 73.674H69.3375ZM76.6892 70.188C77.4825 70.188 78.1172 70.4027 78.5932 70.832C79.0692 71.252 79.3072 71.868 79.3072 72.68C79.3072 72.9787 79.2838 73.2447 79.2372 73.478L78.4392 78H77.1792L77.9492 73.66C77.9865 73.464 78.0052 73.2587 78.0052 73.044C78.0052 72.4747 77.8465 72.0407 77.5292 71.742C77.2212 71.4433 76.7872 71.294 76.2272 71.294C75.5552 71.294 74.9812 71.504 74.5052 71.924C74.0385 72.344 73.7352 72.9553 73.5952 73.758V73.73L72.8392 78H71.5652L72.9232 70.328H74.1972L74.0012 71.434C74.3185 71.0327 74.7152 70.7247 75.1912 70.51C75.6672 70.2953 76.1665 70.188 76.6892 70.188ZM82.4523 75.9C82.4243 76.04 82.4103 76.1613 82.4103 76.264C82.4103 76.4973 82.4803 76.6653 82.6203 76.768C82.7696 76.8707 83.0076 76.922 83.3343 76.922H84.2722L84.0763 78H82.9283C82.3216 78 81.8643 77.8833 81.5563 77.65C81.2576 77.4167 81.1083 77.034 81.1083 76.502C81.1083 76.2967 81.1269 76.096 81.1643 75.9L81.9623 71.378H80.9823L81.1643 70.328H82.1583L82.4943 68.396H83.7823L83.4463 70.328H85.4343L85.2523 71.378H83.2503L82.4523 75.9ZM87.9999 71.784C88.3079 71.28 88.6952 70.888 89.1619 70.608C89.6285 70.328 90.1605 70.188 90.7579 70.188L90.5199 71.504H90.1839C89.5212 71.504 88.9659 71.6813 88.5179 72.036C88.0792 72.3907 87.7852 72.988 87.6359 73.828L86.8939 78H85.6199L86.9779 70.328H88.2519L87.9999 71.784ZM95.5325 70.202C96.1765 70.202 96.7318 70.328 97.1985 70.58C97.6745 70.8227 98.0338 71.168 98.2765 71.616C98.5285 72.0547 98.6545 72.5587 98.6545 73.128C98.6545 73.324 98.6312 73.562 98.5845 73.842C98.5472 74.0847 98.4865 74.3367 98.4025 74.598H92.2705C92.2518 74.7847 92.2425 74.92 92.2425 75.004C92.2425 75.648 92.4338 76.152 92.8165 76.516C93.2085 76.8707 93.7172 77.048 94.3425 77.048C94.8932 77.048 95.3738 76.922 95.7845 76.67C96.2045 76.4087 96.5218 76.0633 96.7365 75.634H98.1085C97.7725 76.3713 97.2545 76.9733 96.5545 77.44C95.8638 77.8973 95.0612 78.126 94.1465 78.126C93.1852 78.126 92.4105 77.8507 91.8225 77.3C91.2438 76.74 90.9545 75.9793 90.9545 75.018C90.9545 74.7473 90.9825 74.458 91.0385 74.15C91.1785 73.3567 91.4632 72.6613 91.8925 72.064C92.3218 71.4667 92.8492 71.0093 93.4745 70.692C94.1092 70.3653 94.7952 70.202 95.5325 70.202ZM97.2965 73.674C97.3245 73.4873 97.3385 73.3147 97.3385 73.156C97.3385 72.5587 97.1472 72.0967 96.7645 71.77C96.3912 71.4433 95.9012 71.28 95.2945 71.28C94.6412 71.28 94.0485 71.4947 93.5165 71.924C92.9845 72.344 92.6252 72.9273 92.4385 73.674H97.2965ZM101.904 71.742C102.24 71.3033 102.683 70.9393 103.234 70.65C103.785 70.3513 104.387 70.202 105.04 70.202C105.637 70.202 106.165 70.328 106.622 70.58C107.089 70.8227 107.448 71.1773 107.7 71.644C107.952 72.1013 108.078 72.6427 108.078 73.268C108.078 73.5387 108.05 73.828 107.994 74.136C107.854 74.9107 107.569 75.6013 107.14 76.208C106.72 76.8147 106.202 77.286 105.586 77.622C104.979 77.958 104.335 78.126 103.654 78.126C103.001 78.126 102.45 77.9813 102.002 77.692C101.563 77.3933 101.246 77.0247 101.05 76.586L100.168 81.64H98.8942L100.882 70.328H102.156L101.904 71.742ZM106.692 74.136C106.729 73.94 106.748 73.7253 106.748 73.492C106.748 72.8107 106.547 72.2787 106.146 71.896C105.745 71.504 105.227 71.308 104.592 71.308C104.125 71.308 103.673 71.4247 103.234 71.658C102.795 71.882 102.417 72.2133 102.1 72.652C101.792 73.0813 101.587 73.5807 101.484 74.15C101.447 74.346 101.428 74.5607 101.428 74.794C101.428 75.4753 101.629 76.0167 102.03 76.418C102.441 76.81 102.959 77.006 103.584 77.006C104.06 77.006 104.513 76.894 104.942 76.67C105.381 76.4367 105.754 76.1053 106.062 75.676C106.379 75.2373 106.589 74.724 106.692 74.136ZM111.365 71.784C111.673 71.28 112.06 70.888 112.527 70.608C112.994 70.328 113.526 70.188 114.123 70.188L113.885 71.504H113.549C112.886 71.504 112.331 71.6813 111.883 72.036C111.444 72.3907 111.15 72.988 111.001 73.828L110.259 78H108.985L110.343 70.328H111.617L111.365 71.784ZM118.898 70.202C119.542 70.202 120.097 70.328 120.564 70.58C121.04 70.8227 121.399 71.168 121.642 71.616C121.894 72.0547 122.02 72.5587 122.02 73.128C122.02 73.324 121.996 73.562 121.95 73.842C121.912 74.0847 121.852 74.3367 121.768 74.598H115.636C115.617 74.7847 115.608 74.92 115.608 75.004C115.608 75.648 115.799 76.152 116.182 76.516C116.574 76.8707 117.082 77.048 117.708 77.048C118.258 77.048 118.739 76.922 119.15 76.67C119.57 76.4087 119.887 76.0633 120.102 75.634H121.474C121.138 76.3713 120.62 76.9733 119.92 77.44C119.229 77.8973 118.426 78.126 117.512 78.126C116.55 78.126 115.776 77.8507 115.188 77.3C114.609 76.74 114.32 75.9793 114.32 75.018C114.32 74.7473 114.348 74.458 114.404 74.15C114.544 73.3567 114.828 72.6613 115.258 72.064C115.687 71.4667 116.214 71.0093 116.84 70.692C117.474 70.3653 118.16 70.202 118.898 70.202ZM120.662 73.674C120.69 73.4873 120.704 73.3147 120.704 73.156C120.704 72.5587 120.512 72.0967 120.13 71.77C119.756 71.4433 119.266 71.28 118.66 71.28C118.006 71.28 117.414 71.4947 116.882 71.924C116.35 72.344 115.99 72.9273 115.804 73.674H120.662ZM128.013 70.188C128.807 70.188 129.441 70.4027 129.917 70.832C130.393 71.252 130.631 71.868 130.631 72.68C130.631 72.9787 130.608 73.2447 130.561 73.478L129.763 78H128.503L129.273 73.66C129.311 73.464 129.329 73.2587 129.329 73.044C129.329 72.4747 129.171 72.0407 128.853 71.742C128.545 71.4433 128.111 71.294 127.551 71.294C126.879 71.294 126.305 71.504 125.829 71.924C125.363 72.344 125.059 72.9553 124.919 73.758V73.73L124.163 78H122.889L124.247 70.328H125.521L125.325 71.434C125.643 71.0327 126.039 70.7247 126.515 70.51C126.991 70.2953 127.491 70.188 128.013 70.188ZM135.218 78.126C134.574 78.126 134.005 77.9953 133.51 77.734C133.025 77.4633 132.647 77.09 132.376 76.614C132.106 76.1287 131.97 75.5687 131.97 74.934C131.97 74.066 132.171 73.2727 132.572 72.554C132.974 71.826 133.524 71.252 134.224 70.832C134.934 70.412 135.722 70.202 136.59 70.202C137.234 70.202 137.804 70.3373 138.298 70.608C138.802 70.8693 139.19 71.2427 139.46 71.728C139.74 72.204 139.88 72.764 139.88 73.408C139.88 74.276 139.675 75.0693 139.264 75.788C138.854 76.5067 138.294 77.076 137.584 77.496C136.875 77.916 136.086 78.126 135.218 78.126ZM135.372 77.048C135.979 77.048 136.525 76.8847 137.01 76.558C137.496 76.222 137.874 75.7833 138.144 75.242C138.424 74.6913 138.564 74.1033 138.564 73.478C138.564 72.7687 138.359 72.2273 137.948 71.854C137.538 71.4713 137.024 71.28 136.408 71.28C135.802 71.28 135.26 71.448 134.784 71.784C134.308 72.1107 133.94 72.5493 133.678 73.1C133.417 73.6507 133.286 74.2433 133.286 74.878C133.286 75.5687 133.482 76.1053 133.874 76.488C134.266 76.8613 134.766 77.048 135.372 77.048ZM142.732 75.9C142.704 76.04 142.69 76.1613 142.69 76.264C142.69 76.4973 142.76 76.6653 142.9 76.768C143.049 76.8707 143.287 76.922 143.614 76.922H144.552L144.356 78H143.208C142.601 78 142.144 77.8833 141.836 77.65C141.537 77.4167 141.388 77.034 141.388 76.502C141.388 76.2967 141.406 76.096 141.444 75.9L142.242 71.378H141.262L141.444 70.328H142.438L142.774 68.396H144.062L143.726 70.328H145.714L145.532 71.378H143.53L142.732 75.9ZM150.589 70.202C151.233 70.202 151.788 70.328 152.255 70.58C152.731 70.8227 153.09 71.168 153.333 71.616C153.585 72.0547 153.711 72.5587 153.711 73.128C153.711 73.324 153.688 73.562 153.641 73.842C153.604 74.0847 153.543 74.3367 153.459 74.598H147.327C147.308 74.7847 147.299 74.92 147.299 75.004C147.299 75.648 147.49 76.152 147.873 76.516C148.265 76.8707 148.774 77.048 149.399 77.048C149.95 77.048 150.43 76.922 150.841 76.67C151.261 76.4087 151.578 76.0633 151.793 75.634H153.165C152.829 76.3713 152.311 76.9733 151.611 77.44C150.92 77.8973 150.118 78.126 149.203 78.126C148.242 78.126 147.467 77.8507 146.879 77.3C146.3 76.74 146.011 75.9793 146.011 75.018C146.011 74.7473 146.039 74.458 146.095 74.15C146.235 73.3567 146.52 72.6613 146.949 72.064C147.378 71.4667 147.906 71.0093 148.531 70.692C149.166 70.3653 149.852 70.202 150.589 70.202ZM152.353 73.674C152.381 73.4873 152.395 73.3147 152.395 73.156C152.395 72.5587 152.204 72.0967 151.821 71.77C151.448 71.4433 150.958 71.28 150.351 71.28C149.698 71.28 149.105 71.4947 148.573 71.924C148.041 72.344 147.682 72.9273 147.495 73.674H152.353Z" fill="#0052D9"/>
<path d="M51.112 64.224C49.4693 64.224 47.9973 63.9573 46.696 63.424C45.3947 62.8907 44.3493 62.1013 43.56 61.056C42.792 60.0107 42.3867 58.752 42.344 57.28H48.168C48.2533 58.112 48.5413 58.752 49.032 59.2C49.5227 59.6267 50.1627 59.84 50.952 59.84C51.7627 59.84 52.4027 59.6587 52.872 59.296C53.3413 58.912 53.576 58.3893 53.576 57.728C53.576 57.1733 53.384 56.7147 53 56.352C52.6373 55.9893 52.1787 55.6907 51.624 55.456C51.0907 55.2213 50.3227 54.9547 49.32 54.656C47.8693 54.208 46.6853 53.76 45.768 53.312C44.8507 52.864 44.0613 52.2027 43.4 51.328C42.7387 50.4533 42.408 49.312 42.408 47.904C42.408 45.8133 43.1653 44.1813 44.68 43.008C46.1947 41.8133 48.168 41.216 50.6 41.216C53.0747 41.216 55.0693 41.8133 56.584 43.008C58.0987 44.1813 58.9093 45.824 59.016 47.936H53.096C53.0533 47.2107 52.7867 46.6453 52.296 46.24C51.8053 45.8133 51.176 45.6 50.408 45.6C49.7467 45.6 49.2133 45.7813 48.808 46.144C48.4027 46.4853 48.2 46.9867 48.2 47.648C48.2 48.3733 48.5413 48.9387 49.224 49.344C49.9067 49.7493 50.9733 50.1867 52.424 50.656C53.8747 51.1467 55.048 51.616 55.944 52.064C56.8613 52.512 57.6507 53.1627 58.312 54.016C58.9733 54.8693 59.304 55.968 59.304 57.312C59.304 58.592 58.9733 59.7547 58.312 60.8C57.672 61.8453 56.7333 62.6773 55.496 63.296C54.2587 63.9147 52.7973 64.224 51.112 64.224ZM78.8315 41.536V45.92H72.8795V64H67.4075V45.92H61.4555V41.536H78.8315ZM86.9538 41.536V54.976C86.9538 56.32 87.2844 57.3547 87.9458 58.08C88.6071 58.8053 89.5778 59.168 90.8578 59.168C92.1378 59.168 93.1191 58.8053 93.8018 58.08C94.4844 57.3547 94.8258 56.32 94.8258 54.976V41.536H100.298V54.944C100.298 56.9493 99.8711 58.6453 99.0178 60.032C98.1644 61.4187 97.0124 62.464 95.5618 63.168C94.1324 63.872 92.5324 64.224 90.7618 64.224C88.9911 64.224 87.4018 63.8827 85.9938 63.2C84.6071 62.496 83.5084 61.4507 82.6978 60.064C81.8871 58.656 81.4818 56.9493 81.4818 54.944V41.536H86.9538ZM118.764 41.536V45.92H109.612V50.656H116.46V54.912H109.612V64H104.14V41.536H118.764ZM136.264 41.536V45.92H127.112V50.656H133.96V54.912H127.112V64H121.64V41.536H136.264Z" fill="#0052D9"/>
<g clip-path="url(#clip0_7909_1816)">
<path d="M30.0009 0C13.431 0 0 13.43 0 29.9981C0 46.5681 13.431 59.9991 30.0009 59.9991C32.4816 59.9991 34.8833 59.678 37.1899 59.1094C37.4859 58.7821 37.6743 58.3777 37.7963 57.7247C37.92 57.0404 37.9308 56.1284 37.9003 55.0754C37.8502 52.9679 37.642 50.2971 38.4743 47.4667C39.0286 45.5816 40.0725 43.6444 41.8608 41.8624C41.8608 41.8624 41.8608 41.8615 41.8627 41.8605C44.1998 39.5091 46.8096 38.4625 49.2113 38.0777C51.6166 37.6876 53.8317 37.8885 55.5914 37.9099C56.7627 37.9332 57.7168 37.8615 58.3357 37.64C58.6621 37.5243 58.8971 37.3791 59.1105 37.1844C59.6791 34.8805 60.0002 32.4778 60.0002 29.9981C60 13.43 46.569 0 30.0009 0ZM18.5582 34.5451L14.282 35.5011C14.2174 35.5154 14.1923 35.5549 14.2076 35.6214L15.1788 39.962C15.2003 40.0589 15.1484 40.1396 15.0514 40.1611L13.4578 40.518C13.3609 40.5395 13.2802 40.4885 13.2587 40.3916L10.857 29.66C10.8355 29.5623 10.8874 29.4825 10.9843 29.4609L17.9106 27.9112C18.0083 27.8897 18.0882 27.94 18.1106 28.0377L18.4227 29.4359C18.4451 29.5336 18.3941 29.6126 18.2963 29.635L13.2238 30.7696C13.1592 30.7839 13.134 30.8242 13.1484 30.8897L13.778 33.7022C13.7923 33.7668 13.8318 33.792 13.8963 33.7774L18.1725 32.8214C18.2702 32.799 18.351 32.8502 18.3724 32.947L18.6854 34.3452C18.7071 34.4429 18.6559 34.5227 18.5582 34.5451ZM30.8232 36.632L29.0188 37.0365C28.8887 37.0651 28.8125 37.0311 28.7389 36.928L25.661 33.0922L23.7579 33.5174C23.6933 33.5318 23.6681 33.5721 23.6825 33.6376L24.6251 37.8483C24.6466 37.946 24.5955 38.0258 24.4986 38.0474L22.905 38.4042C22.8071 38.4258 22.7273 38.3747 22.7059 38.2778L20.3041 27.5463C20.2826 27.4494 20.3338 27.3687 20.4315 27.3472L24.7077 26.3912C26.74 25.9356 28.5381 26.9508 28.9739 28.9015C29.2977 30.3489 28.7191 31.6566 27.5569 32.4125L30.8904 36.3954C30.9802 36.4948 30.9371 36.6069 30.8232 36.632ZM39.8957 34.6025L32.9694 36.1522C32.8726 36.1738 32.7927 36.1235 32.7713 36.0258L30.3704 25.2942C30.348 25.1965 30.3991 25.1176 30.4961 25.0961L37.4223 23.5464C37.52 23.524 37.5998 23.5751 37.6222 23.6719L37.9343 25.071C37.9568 25.1678 37.9056 25.2468 37.8079 25.2691L32.7353 26.4035C32.6707 26.4187 32.6456 26.4582 32.6599 26.5237L33.2644 29.2223C33.2787 29.2879 33.3182 29.3129 33.3827 29.2985L37.6589 28.3416C37.7566 28.3201 37.8364 28.3703 37.8588 28.468L38.1709 29.8662C38.1934 29.9639 38.1422 30.0437 38.0445 30.0653L33.7683 31.0221C33.7037 31.0365 33.6786 31.076 33.6929 31.1414L34.3189 33.9377C34.3332 34.0024 34.3727 34.0284 34.4373 34.014L39.5098 32.8786C39.6075 32.857 39.6882 32.9073 39.7098 33.005L40.0228 34.4032C40.0445 34.5004 39.9934 34.581 39.8957 34.6025ZM49.1644 32.529L42.2381 34.0787C42.1404 34.1003 42.0606 34.05 42.039 33.9523L39.6382 23.2207C39.6158 23.123 39.6669 23.044 39.7646 23.0216L46.6909 21.4729C46.7886 21.4505 46.8676 21.5006 46.89 21.5984L47.2021 22.9965C47.2245 23.0943 47.1742 23.1732 47.0766 23.1956L42.004 24.33C41.9386 24.3444 41.9134 24.3847 41.9278 24.4502L42.5323 27.1488C42.5466 27.2143 42.5861 27.2394 42.6516 27.225L46.9277 26.268C47.0255 26.2457 47.1045 26.2968 47.1268 26.3945L47.4389 27.7918C47.4613 27.8905 47.411 27.9694 47.3133 27.9918L43.0372 28.9487C42.9717 28.9631 42.9466 29.0026 42.9611 29.0671L43.5871 31.8634C43.6014 31.9288 43.641 31.9549 43.7064 31.9396L48.7788 30.8051C48.8766 30.7835 48.9565 30.8338 48.9779 30.9315L49.2909 32.3297C49.3125 32.4267 49.2622 32.5075 49.1644 32.529Z" fill="#0052D9"/>
<path d="M25.0288 28.1302L22.671 28.6585C22.6064 28.6728 22.5813 28.7123 22.5957 28.7778L23.254 31.7204C23.2692 31.7858 23.3087 31.81 23.3733 31.7956L25.7311 31.2683C26.7401 31.0431 27.2844 30.2727 27.0728 29.3293C26.8583 28.3696 26.0377 27.9051 25.0288 28.1302Z" fill="#0052D9"/>
</g>
<defs>
<clipPath id="clip0_7909_1816">
<rect width="60" height="60" fill="white"/>
</clipPath>
</defs>
</svg>
