<svg fill="none" height="46" viewBox="0 0 126 46" width="126" xmlns="http://www.w3.org/2000/svg" xmlns:xlink="http://www.w3.org/1999/xlink"><mask id="a" fill="#fff"><path d="m84 11.5c0-4.41828 3.5817-8 8-8h26c4.418 0 8 3.58172 8 8v26c0 4.4183-3.582 8-8 8h-26c-4.4183 0-8-3.5817-8-8zm12.6025 13.0039c.0003 4.6378 3.7605 8.3974 8.3995 8.3975 4.639 0 8.4-3.7597 8.4-8.3975 0-4.638-3.761-8.3984-8.4-8.3984s-8.3995 3.7604-8.3995 8.3984z" fill="#fff"/></mask><g fill="#fff"><path d="m.5 11.5c0-4.14214 3.35786-7.5 7.5-7.5h26c4.1421 0 7.5 3.35786 7.5 7.5v26c0 4.1421-3.3579 7.5-7.5 7.5h-33.5z" stroke="#fff"/><path d="m84 11.5c0-4.41828 3.5817-8 8-8h26c4.418 0 8 3.58172 8 8v26c0 4.4183-3.582 8-8 8h-26c-4.4183 0-8-3.5817-8-8zm12.6025 13.0039c.0003 4.6378 3.7605 8.3974 8.3995 8.3975 4.639 0 8.4-3.7597 8.4-8.3975 0-4.638-3.761-8.3984-8.4-8.3984s-8.3995 3.7604-8.3995 8.3984z"/><path d="m92 3.5v-1zm26 0v-1zm8 8h1zm-8 34v1zm-26 0v1zm-8-8h-1zm12.6025-12.9961h-1v.0001zm8.3995 8.3975v1zm8.4-8.3975 1 .0001v-.0001zm-8.4-8.3984v-1zm-21.002-4.6055h1c0-3.86599 3.134-7 7-7v-1-1c-4.9706 0-9 4.02944-9 9zm8-8v1h26v-1-1h-26zm26 0v1c3.866 0 7 3.13401 7 7h1 1c0-4.97056-4.029-9-9-9zm8 8h-1v26h1 1v-26zm0 26h-1c0 3.866-3.134 7-7 7v1 1c4.971 0 9-4.0294 9-9zm-8 8v-1h-26v1 1h26zm-26 0v-1c-3.866 0-7-3.134-7-7h-1-1c0 4.9706 4.0294 9 9 9zm-8-8h1v-26h-1-1v26zm12.6025-12.9961-1 .0001c.0003 5.1902 4.2083 9.3973 9.3995 9.3974v-1-1c-4.087-.0001-7.3993-3.3122-7.3995-7.3975zm8.3995 8.3975v1c5.191 0 9.4-4.2071 9.4-9.3974l-1-.0001h-1c0 4.0852-3.313 7.3975-7.4 7.3975zm8.4-8.3975h1c0-5.1905-4.209-9.3984-9.4-9.3984v1 1c4.087 0 7.4 3.3129 7.4 7.3984zm-8.4-8.3984v-1c-5.1914 0-9.3995 4.2081-9.3995 9.3984h1 1c0-4.0856 3.3125-7.3984 7.3995-7.3984z" mask="url(#a)"/><path clip-rule="evenodd" d="m53.6667-.00016421c.6188 0 1.2123.23968921 1.6499.66633221.4376.426642.6834 1.005302.6834 1.608672v2.275h-4.6667v-2.275c0-.60337.2459-1.18203.6835-1.608672.4375-.426643 1.031-.66633221 1.6499-.66633221zm21 4.55000421h2.3333c1.8565 0 3.637.71907 4.9497 1.99899 1.3128 1.27993 2.0503 3.01592 2.0503 4.82597v27.3c0 1.8101-.7375 3.5461-2.0503 4.826-1.3127 1.28-3.0932 1.999-4.9497 1.999h-28c-1.8565 0-3.637-.719-4.9497-1.999-1.3128-1.2799-2.0503-3.0159-2.0503-4.826v-27.3c0-1.81005.7375-3.54604 2.0503-4.82597 1.3127-1.27992 3.0932-1.99899 4.9497-1.99899h2.3333v6.82496c0 .6034.2459 1.1821.6835 1.6087.4375.4266 1.031.6663 1.6499.6663.6188 0 1.2123-.2397 1.6499-.6663s.6834-1.0053.6834-1.6087v-6.82496h4.6667v6.82496c0 .6034.2458 1.1821.6834 1.6087s1.0311.6663 1.6499.6663 1.2123-.2397 1.6499-.6663.6834-1.0053.6834-1.6087v-6.82496h4.6667v6.82496c0 .6034.2458 1.1821.6834 1.6087s1.0311.6663 1.6499.6663c.6189 0 1.2124-.2397 1.65-.6663.4375-.4266.6834-1.0053.6834-1.6087zm0 0h-4.6667v-2.275c0-.60337.2458-1.18203.6834-1.608672.4376-.426643 1.0311-.66633221 1.6499-.66633221.6189 0 1.2124.23968921 1.65.66633221.4375.426642.6834 1.005302.6834 1.608672zm-9.3334 0v-2.275c0-.60337-.2458-1.18203-.6834-1.608672-.4376-.426643-1.0311-.66633221-1.6499-.66633221s-1.2123.23968921-1.6499.66633221c-.4376.426642-.6834 1.005302-.6834 1.608672v2.275z" fill-rule="evenodd"/></g></svg>