<svg fill="none" height="82" viewBox="0 0 171 82" width="171" xmlns="http://www.w3.org/2000/svg" xmlns:xlink="http://www.w3.org/1999/xlink"><clipPath id="a"><path d="m0 0h60v60h-60z"/></clipPath><path clip-rule="evenodd" d="m153.999 36.8359c-7.824 0-14.167 6.3427-14.167 14.1667s6.343 14.1667 14.167 14.1667 14.166-6.3427 14.166-14.1667-6.342-14.1667-14.166-14.1667zm-1.095 9.3062-2.854 2.2732c-1.198.9537-1.797 1.4307-1.68 1.9631l.006.0264c.133.5291.892.7325 2.411 1.1394.843.226 1.265.339 1.463.6587l.01.0169c.191.3236.082.7289-.135 1.5395l-.057.2118c-.602 2.2474-.903 3.3709-.323 3.7339.58.3628 1.502-.3719 3.348-1.8412l2.854-2.2734c1.198-.9537 1.797-1.4305 1.68-1.963l-.006-.0264c-.133-.5291-.892-.7326-2.411-1.1393-.843-.2261-1.265-.3391-1.463-.6589l-.01-.0168c-.191-.3236-.082-.7289.135-1.5394l.057-.2119c.602-2.2474.903-3.371.323-3.7339s-1.503.3718-3.348 1.8413z" fill="#ffca09" fill-rule="evenodd"/><g fill="#0052d9"><path d="m43.744 71.756c.3453-.4573.7933-.8307 1.344-1.12s1.148-.434 1.792-.434c.9147 0 1.6473.2753 2.198.826.56.5507.84 1.2973.84 2.24 0 .2707-.028.56-.084.868-.14.7747-.4247 1.4653-.854 2.072-.42.6067-.938 1.078-1.554 1.414-.6067.336-1.2507.504-1.932.504-.6627 0-1.218-.1447-1.666-.434s-.7607-.658-.938-1.106l-.252 1.414h-1.274l1.834-10.36h1.274zm4.788 2.38c.0373-.196.056-.4107.056-.644 0-.6813-.2007-1.2133-.602-1.596-.4013-.392-.9193-.588-1.554-.588-.4667 0-.9193.1167-1.358.35-.4387.224-.8167.5553-1.134.994-.308.4293-.5133.9287-.616 1.498-.0373.196-.056.4107-.056.644 0 .6813.2007 1.2227.602 1.624.4107.392.9287.588 1.554.588.476 0 .9287-.112 1.358-.336.4387-.2333.812-.5647 1.12-.994.3173-.4387.5273-.952.63-1.54zm4.1549-3.808 1.302 6.188 3.486-6.188h1.316l-6.608 11.284h-1.33l2.17-3.696-1.75-7.588zm14.8866-.126c.644 0 1.1994.126 1.666.378.476.2427.8354.588 1.078 1.036.252.4387.378.9427.378 1.512 0 .196-.0233.434-.07.714-.0373.2427-.098.4947-.182.756h-6.132c-.0186.1867-.028.322-.028.406 0 .644.1914 1.148.574 1.512.392.3547.9007.532 1.526.532.5507 0 1.0314-.126 1.442-.378.42-.2613.7374-.6067.952-1.036h1.372c-.336.7373-.854 1.3393-1.554 1.806-.6906.4573-1.4933.686-2.408.686-.9613 0-1.736-.2753-2.324-.826-.5786-.56-.868-1.3207-.868-2.282 0-.2707.028-.56.084-.868.14-.7933.4247-1.4887.854-2.086.4294-.5973.9567-1.0547 1.582-1.372.6347-.3267 1.3207-.49 2.058-.49zm1.764 3.472c.028-.1867.042-.3593.042-.518 0-.5973-.1913-1.0593-.574-1.386-.3733-.3267-.8633-.49-1.47-.49-.6533 0-1.246.2147-1.778.644-.532.42-.8913 1.0033-1.078 1.75zm7.3517-3.486c.7933 0 1.428.2147 1.904.644.476.42.714 1.036.714 1.848 0 .2987-.0234.5647-.07.798l-.798 4.522h-1.26l.77-4.34c.0373-.196.056-.4013.056-.616 0-.5693-.1587-1.0033-.476-1.302-.308-.2987-.742-.448-1.302-.448-.672 0-1.246.21-1.722.63-.4667.42-.77 1.0313-.91 1.834v-.028l-.756 4.27h-1.274l1.358-7.672h1.274l-.196 1.106c.3173-.4013.714-.7093 1.19-.924s.9753-.322 1.498-.322zm5.7631 5.712c-.028.14-.042.2613-.042.364 0 .2333.07.4013.21.504.1493.1027.3873.154.714.154h.9379l-.1959 1.078h-1.148c-.6067 0-1.064-.1167-1.372-.35-.2987-.2333-.448-.616-.448-1.148 0-.2053.0186-.406.056-.602l.798-4.522h-.98l.182-1.05h.994l.336-1.932h1.288l-.336 1.932h1.988l-.182 1.05h-2.002zm5.5476-4.116c.308-.504.6953-.896 1.162-1.176.4666-.28.9986-.42 1.596-.42l-.238 1.316h-.336c-.6627 0-1.218.1773-1.666.532-.4387.3547-.7327.952-.882 1.792l-.742 4.172h-1.274l1.358-7.672h1.274zm7.5326-1.582c.644 0 1.1993.126 1.666.378.476.2427.8353.588 1.078 1.036.252.4387.378.9427.378 1.512 0 .196-.0233.434-.07.714-.0373.2427-.098.4947-.182.756h-6.132c-.0187.1867-.028.322-.028.406 0 .644.1913 1.148.574 1.512.392.3547.9007.532 1.526.532.5507 0 1.0313-.126 1.442-.378.42-.2613.7373-.6067.952-1.036h1.372c-.336.7373-.854 1.3393-1.554 1.806-.6907.4573-1.4933.686-2.408.686-.9613 0-1.736-.2753-2.324-.826-.5787-.56-.868-1.3207-.868-2.282 0-.2707.028-.56.084-.868.14-.7933.4247-1.4887.854-2.086s.9567-1.0547 1.582-1.372c.6347-.3267 1.3207-.49 2.058-.49zm1.764 3.472c.028-.1867.042-.3593.042-.518 0-.5973-.1913-1.0593-.574-1.386-.3733-.3267-.8633-.49-1.47-.49-.6533 0-1.246.2147-1.778.644-.532.42-.8913 1.0033-1.078 1.75zm4.6075-1.932c.336-.4387.779-.8027 1.33-1.092.551-.2987 1.153-.448 1.806-.448.597 0 1.125.126 1.582.378.467.2427.826.5973 1.078 1.064.252.4573.378.9987.378 1.624 0 .2707-.028.56-.084.868-.14.7747-.425 1.4653-.854 2.072-.42.6067-.938 1.078-1.554 1.414-.607.336-1.251.504-1.932.504-.653 0-1.204-.1447-1.652-.434-.439-.2987-.756-.6673-.952-1.106l-.882 5.054h-1.2738l1.9878-11.312h1.274zm4.788 2.394c.037-.196.056-.4107.056-.644 0-.6813-.201-1.2133-.602-1.596-.401-.392-.919-.588-1.554-.588-.467 0-.919.1167-1.358.35-.439.224-.817.5553-1.134.994-.308.4293-.513.9287-.616 1.498-.037.196-.056.4107-.056.644 0 .6813.201 1.2227.602 1.624.411.392.929.588 1.554.588.476 0 .929-.112 1.358-.336.439-.2333.812-.5647 1.12-.994.317-.4387.527-.952.63-1.54zm4.673-2.352c.308-.504.695-.896 1.162-1.176s.999-.42 1.596-.42l-.238 1.316h-.336c-.663 0-1.218.1773-1.666.532-.439.3547-.733.952-.882 1.792l-.742 4.172h-1.274l1.358-7.672h1.274zm7.533-1.582c.644 0 1.199.126 1.666.378.476.2427.835.588 1.078 1.036.252.4387.378.9427.378 1.512 0 .196-.024.434-.07.714-.038.2427-.098.4947-.182.756h-6.132c-.019.1867-.028.322-.028.406 0 .644.191 1.148.574 1.512.392.3547.9.532 1.526.532.55 0 1.031-.126 1.442-.378.42-.2613.737-.6067.952-1.036h1.372c-.336.7373-.854 1.3393-1.554 1.806-.691.4573-1.494.686-2.408.686-.962 0-1.736-.2753-2.324-.826-.579-.56-.868-1.3207-.868-2.282 0-.2707.028-.56.084-.868.14-.7933.424-1.4887.854-2.086.429-.5973.956-1.0547 1.582-1.372.634-.3267 1.32-.49 2.058-.49zm1.764 3.472c.028-.1867.042-.3593.042-.518 0-.5973-.192-1.0593-.574-1.386-.374-.3267-.864-.49-1.47-.49-.654 0-1.246.2147-1.778.644-.532.42-.892 1.0033-1.078 1.75zm7.351-3.486c.794 0 1.428.2147 1.904.644.476.42.714 1.036.714 1.848 0 .2987-.023.5647-.07.798l-.798 4.522h-1.26l.77-4.34c.038-.196.056-.4013.056-.616 0-.5693-.158-1.0033-.476-1.302-.308-.2987-.742-.448-1.302-.448-.672 0-1.246.21-1.722.63-.466.42-.77 1.0313-.91 1.834v-.028l-.756 4.27h-1.274l1.358-7.672h1.274l-.196 1.106c.318-.4013.714-.7093 1.19-.924s.976-.322 1.498-.322zm7.205 7.938c-.644 0-1.213-.1307-1.708-.392-.485-.2707-.863-.644-1.134-1.12-.27-.4853-.406-1.0453-.406-1.68 0-.868.201-1.6613.602-2.38.402-.728.952-1.302 1.652-1.722.71-.42 1.498-.63 2.366-.63.644 0 1.214.1353 1.708.406.504.2613.892.6347 1.162 1.12.28.476.42 1.036.42 1.68 0 .868-.205 1.6613-.616 2.38-.41.7187-.97 1.288-1.68 1.708-.709.42-1.498.63-2.366.63zm.154-1.078c.607 0 1.153-.1633 1.638-.49.486-.336.864-.7747 1.134-1.316.28-.5507.42-1.1387.42-1.764 0-.7093-.205-1.2507-.616-1.624-.41-.3827-.924-.574-1.54-.574-.606 0-1.148.168-1.624.504-.476.3267-.844.7653-1.106 1.316-.261.5507-.392 1.1433-.392 1.778 0 .6907.196 1.2273.588 1.61.392.3733.892.56 1.498.56zm7.36-1.148c-.028.14-.042.2613-.042.364 0 .2333.07.4013.21.504.149.1027.387.154.714.154h.938l-.196 1.078h-1.148c-.607 0-1.064-.1167-1.372-.35-.299-.2333-.448-.616-.448-1.148 0-.2053.018-.406.056-.602l.798-4.522h-.98l.182-1.05h.994l.336-1.932h1.288l-.336 1.932h1.988l-.182 1.05h-2.002zm7.857-5.698c.644 0 1.199.126 1.666.378.476.2427.835.588 1.078 1.036.252.4387.378.9427.378 1.512 0 .196-.023.434-.07.714-.037.2427-.098.4947-.182.756h-6.132c-.019.1867-.028.322-.028.406 0 .644.191 1.148.574 1.512.392.3547.901.532 1.526.532.551 0 1.031-.126 1.442-.378.42-.2613.737-.6067.952-1.036h1.372c-.336.7373-.854 1.3393-1.554 1.806-.691.4573-1.493.686-2.408.686-.961 0-1.736-.2753-2.324-.826-.579-.56-.868-1.3207-.868-2.282 0-.2707.028-.56.084-.868.14-.7933.425-1.4887.854-2.086s.957-1.0547 1.582-1.372c.635-.3267 1.321-.49 2.058-.49zm1.764 3.472c.028-.1867.042-.3593.042-.518 0-.5973-.191-1.0593-.574-1.386-.373-.3267-.863-.49-1.47-.49-.653 0-1.246.2147-1.778.644-.532.42-.891 1.0033-1.078 1.75z"/><path d="m51.112 64.224c-1.6427 0-3.1147-.2667-4.416-.8s-2.3467-1.3227-3.136-2.368c-.768-1.0453-1.1733-2.304-1.216-3.776h5.824c.0853.832.3733 1.472.864 1.92.4907.4267 1.1307.64 1.92.64.8107 0 1.4507-.1813 1.92-.544.4693-.384.704-.9067.704-1.568 0-.5547-.192-1.0133-.576-1.376-.3627-.3627-.8213-.6613-1.376-.896-.5333-.2347-1.3013-.5013-2.304-.8-1.4507-.448-2.6347-.896-3.552-1.344s-1.7067-1.1093-2.368-1.984-.992-2.016-.992-3.424c0-2.0907.7573-3.7227 2.272-4.896 1.5147-1.1947 3.488-1.792 5.92-1.792 2.4747 0 4.4693.5973 5.984 1.792 1.5147 1.1733 2.3253 2.816 2.432 4.928h-5.92c-.0427-.7253-.3093-1.2907-.8-1.696-.4907-.4267-1.12-.64-1.888-.64-.6613 0-1.1947.1813-1.6.544-.4053.3413-.608.8427-.608 1.504 0 .7253.3413 1.2907 1.024 1.696s1.7493.8427 3.2 1.312c1.4507.4907 2.624.96 3.52 1.408.9173.448 1.7067 1.0987 2.368 1.952s.992 1.952.992 3.296c0 1.28-.3307 2.4427-.992 3.488-.64 1.0453-1.5787 1.8773-2.816 2.496s-2.6987.928-4.384.928zm27.7195-22.688v4.384h-5.952v18.08h-5.472v-18.08h-5.952v-4.384zm8.1223 0v13.44c0 1.344.3306 2.3787.992 3.104.6613.7253 1.632 1.088 2.912 1.088s2.2613-.3627 2.944-1.088c.6826-.7253 1.024-1.76 1.024-3.104v-13.44h5.4722v13.408c0 2.0053-.4269 3.7013-1.2802 5.088-.8534 1.3867-2.0054 2.432-3.456 3.136-1.4294.704-3.0294 1.056-4.8 1.056-1.7707 0-3.36-.3413-4.768-1.024-1.3867-.704-2.4854-1.7493-3.296-3.136-.8107-1.408-1.216-3.1147-1.216-5.12v-13.408zm31.8102 0v4.384h-9.152v4.736h6.848v4.256h-6.848v9.088h-5.472v-22.464zm17.5 0v4.384h-9.152v4.736h6.848v4.256h-6.848v9.088h-5.472v-22.464z"/><g clip-path="url(#a)"><path d="m30.0009 0c-16.5699 0-30.0009 13.43-30.0009 29.9981 0 16.57 13.431 30.001 30.0009 30.001 2.4807 0 4.8824-.3211 7.189-.8897.296-.3273.4844-.7317.6064-1.3847.1237-.6843.1345-1.5963.104-2.6493-.0501-2.1075-.2583-4.7783.574-7.6087.5543-1.8851 1.5982-3.8223 3.3865-5.6043 0 0 0-.0009.0019-.0019 2.3371-2.3514 4.9469-3.398 7.3486-3.7828 2.4053-.3901 4.6204-.1892 6.3801-.1678 1.1713.0233 2.1254-.0484 2.7443-.2699.3264-.1157.5614-.2609.7748-.4556.5686-2.3039.8897-4.7066.8897-7.1863-.0002-16.5681-13.4312-29.9981-29.9993-29.9981zm-11.4427 34.5451-4.2762.956c-.0646.0143-.0897.0538-.0744.1203l.9712 4.3406c.0215.0969-.0304.1776-.1274.1991l-1.5936.3569c-.0969.0215-.1776-.0295-.1991-.1264l-2.4017-10.7316c-.0215-.0977.0304-.1775.1273-.1991l6.9263-1.5497c.0977-.0215.1776.0288.2.1265l.3121 1.3982c.0224.0977-.0286.1767-.1264.1991l-5.0725 1.1346c-.0646.0143-.0898.0546-.0754.1201l.6296 2.8125c.0143.0646.0538.0898.1183.0752l4.2762-.956c.0977-.0224.1785.0288.1999.1256l.313 1.3982c.0217.0977-.0295.1775-.1272.1999zm12.265 2.0869-1.8044.4045c-.1301.0286-.2063-.0054-.2799-.1085l-3.0779-3.8358-1.9031.4252c-.0646.0144-.0898.0547-.0754.1202l.9426 4.2107c.0215.0977-.0296.1775-.1265.1991l-1.5936.3568c-.0979.0216-.1777-.0295-.1991-.1264l-2.4018-10.7315c-.0215-.0969.0297-.1776.1274-.1991l4.2762-.956c2.0323-.4556 3.8304.5596 4.2662 2.5103.3238 1.4474-.2548 2.7551-1.417 3.511l3.3335 3.9829c.0898.0994.0467.2115-.0672.2366zm9.0725-2.0295-6.9263 1.5497c-.0968.0216-.1767-.0287-.1981-.1264l-2.4009-10.7316c-.0224-.0977.0287-.1766.1257-.1981l6.9262-1.5497c.0977-.0224.1775.0287.1999.1255l.3121 1.3991c.0225.0968-.0287.1758-.1264.1981l-5.0726 1.1344c-.0646.0152-.0897.0547-.0754.1202l.6045 2.6986c.0143.0656.0538.0906.1183.0762l4.2762-.9569c.0977-.0215.1775.0287.1999.1264l.3121 1.3982c.0225.0977-.0287.1775-.1264.1991l-4.2762.9568c-.0646.0144-.0897.0539-.0754.1193l.626 2.7963c.0143.0647.0538.0907.1184.0763l5.0725-1.1354c.0977-.0216.1784.0287.2.1264l.313 1.3982c.0217.0972-.0294.1778-.1271.1993zm9.2687-2.0735-6.9263 1.5497c-.0977.0216-.1775-.0287-.1991-.1264l-2.4008-10.7316c-.0224-.0977.0287-.1767.1264-.1991l6.9263-1.5487c.0977-.0224.1767.0277.1991.1255l.3121 1.3981c.0224.0978-.0279.1767-.1255.1991l-5.0726 1.1344c-.0654.0144-.0906.0547-.0762.1202l.6045 2.6986c.0143.0655.0538.0906.1193.0762l4.2761-.957c.0978-.0223.1768.0288.1991.1265l.3121 1.3973c.0224.0987-.0279.1776-.1256.2l-4.2761.9569c-.0655.0144-.0906.0539-.0761.1184l.626 2.7963c.0143.0654.0539.0915.1193.0762l5.0724-1.1345c.0978-.0216.1777.0287.1991.1264l.313 1.3982c.0216.097-.0287.1778-.1265.1993z"/><path d="m25.0288 28.1302-2.3578.5283c-.0646.0143-.0897.0538-.0753.1193l.6583 2.9426c.0152.0654.0547.0896.1193.0752l2.3578-.5273c1.009-.2252 1.5533-.9956 1.3417-1.939-.2145-.9597-1.0351-1.4242-2.044-1.1991z"/></g></g></svg>