<svg fill="none" height="200" viewBox="0 0 200 200" width="200" xmlns="http://www.w3.org/2000/svg" xmlns:xlink="http://www.w3.org/1999/xlink"><clipPath id="a"><path d="m0 0h200v200h-200z" transform="matrix(0 1 -1 0 200 .000009)"/></clipPath><g clip-path="url(#a)" fill="#0052d9"><path d="m91.666 91.6667h-16.6666v-16.6667h16.6666z"/><path clip-rule="evenodd" d="m166.666 54.0053c0-5.0631-2.301-9.8517-6.255-13.0145l-31.77-25.4157c-8.184-6.54759-20.308-.7205-20.308 9.7608v7.9974h-58.3336c-9.205 0-16.6667 7.462-16.6667 16.6667v66.667c0 9.205 7.4617 16.666 16.6667 16.666h58.3336v16.667h-66.667c-4.6025 0-8.3333 3.731-8.3333 8.333 0 4.603 3.7308 8.334 8.3333 8.334h66.667v7.997c0 10.482 12.124 16.309 20.308 9.761l31.77-25.416c3.954-3.162 6.255-7.951 6.255-13.014zm-58.333 12.6613c0-4.6023-3.731-8.3333-8.3336-8.3333h-33.3334c-4.6025 0-8.3333 3.731-8.3333 8.3333v33.3333c0 4.6031 3.7308 8.3331 8.3333 8.3331h33.3334c4.6026 0 8.3336-3.73 8.3336-8.3331z" fill-rule="evenodd"/></g></svg>