<svg fill="none" height="25" viewBox="0 0 22 25" width="22" xmlns="http://www.w3.org/2000/svg"><path clip-rule="evenodd" d="m6.11111.335938c.32415 0 .63503.126428.86424.351471.22921.225044.35798.530271.35798.848531v1.2h-2.44444v-1.2c0-.31826.12877-.623487.35798-.848531.22921-.225043.54009-.351471.86424-.351471zm10.99999 2.400002h1.2222c.9725 0 1.9051.37928 2.5928 1.05441.6876.67513 1.0739 1.59081 1.0739 2.54559v14.39996c0 .9548-.3863 1.8705-1.0739 2.5456-.6877.6752-1.6203 1.0544-2.5928 1.0544h-14.66663c-.97246 0-1.90509-.3792-2.59273-1.0544-.687631-.6751-1.07394-1.5908-1.07394-2.5456v-14.39996c0-.95478.386309-1.87046 1.07394-2.54559.68764-.67513 1.62027-1.05441 2.59273-1.05441h1.22222v3.6c0 .31826.12877.62348.35798.84853.22921.22504.54009.35147.86424.35147s.63503-.12643.86424-.35147c.22921-.22505.35798-.53027.35798-.84853v-3.6h2.44445v3.6c0 .31826.12877.62348.35802.84853.2292.22504.54.35147.8642.35147s.635-.12643.8642-.35147c.2293-.22505.358-.53027.358-.84853v-3.6h2.4445v3.6c0 .31826.1287.62348.3579.84853.2293.22504.5401.35147.8643.35147.3241 0 .635-.12643.8642-.35147.2292-.22505.358-.53027.358-.84853zm0 0h-2.4444v-1.2c0-.31826.1287-.623487.3579-.848531.2293-.225043.5401-.351471.8643-.351471.3241 0 .635.126428.8642.351471.2292.225044.358.530271.358.848531zm-4.8889 0v-1.2c0-.31826-.1287-.623487-.358-.848531-.2292-.225043-.54-.351471-.8642-.351471s-.635.126428-.8642.351471c-.22925.225044-.35802.530271-.35802.848531v1.2z" fill="#fff1a7" fill-rule="evenodd"/></svg>